PathFileType	3	(X/Y/Z)	D:\Jess\Healthy\Labelled\HA23\20251031\SRRun01.trc
DataRate	CameraRate	NumFrames	NumMarkers	Units	OrigDataRate	OrigDataStartFrame	OrigNumFrames
250.0	250.0	5	37	mm	250.0	36875	2501
Frame#	Time	C7			T10			CLAV			LSHO			RSHO			LASIS			RASIS			LPSIS			RPSIS			LILCR			RILCR			LGTR			LTHI			LLTHI			LLEP			LMEP			LPSH			LLSH			LDSH			LLMAL			LMMAL			LTOE			L5TH			LHEE			RGTR			RTHI			RLTHI			RLEP			RMEP			RPSH			RLSH			RDSH			RLMAL			RMMAL			RTOE			R5TH			RHEE			
		X1	Y1	Z1	X2	Y2	Z2	X3	Y3	Z3	X4	Y4	Z4	X5	Y5	Z5	X6	Y6	Z6	X7	Y7	Z7	X8	Y8	Z8	X9	Y9	Z9	X10	Y10	Z10	X11	Y11	Z11	X12	Y12	Z12	X13	Y13	Z13	X14	Y14	Z14	X15	Y15	Z15	X16	Y16	Z16	X17	Y17	Z17	X18	Y18	Z18	X19	Y19	Z19	X20	Y20	Z20	X21	Y21	Z21	X22	Y22	Z22	X23	Y23	Z23	X24	Y24	Z24	X25	Y25	Z25	X26	Y26	Z26	X27	Y27	Z27	X28	Y28	Z28	X29	Y29	Z29	X30	Y30	Z30	X31	Y31	Z31	X32	Y32	Z32	X33	Y33	Z33	X34	Y34	Z34	X35	Y35	Z35	X36	Y36	Z36	X37	Y37	Z37	

1876	147.496	855.9087323258318	1430.351316047997	-1137.404430382556	839.8902395901288	1199.636274431002	-1078.018521679152	890.0596745555449	1327.763793384387	-1271.170909588337	725.5780580236491	1426.072616829506	-1219.521880286426	1013.048700832598	1406.460432401748	-1150.235690888931	716.7635923783213	953.8128594244688	-1210.339992090898	990.3323891601602	943.9700830273592	-1212.530887308747	851.7078596867899	991.6752766763874	-1022.251847872855	883.2212964324495	988.2227351591195	-1023.878919012911	690.423274327047	1024.635976523239	-1156.653325697906	1032.828960032373	1007.765959522534	-1141.447418020884	661.4611387212933	879.6890275105824	-1112.276904086098	767.9765077602246	690.8679825074687	-1224.14429647343	712.4757728438403	619.5727324980061	-1108.897350194157	741.8871095803515	477.6878705089295	-1074.314284538535	nan	nan	nan	808.3391237459531	392.1051993614644	-1093.129398457568	753.2974919546873	305.4433920787465	-980.1365910496128	820.0537624200188	225.9838381070257	-998.4342030195857	797.9570745562679	125.1139059324305	-891.1220518301255	nan	nan	nan	826.965862842051	57.8005529801266	-1016.642435210642	782.8678683576322	34.75478234649486	-983.7506228009723	836.2541735058684	104.1414779205148	-812.0228846253608	1049.4179887686	868.1532146101347	-1178.959539394452	962.5443576987207	747.6221453999708	-1323.133035940397	1034.96561303891	637.5413539648144	-1273.883131506345	1007.105569212176	506.6394115618943	-1321.904062977589	nan	nan	nan	957.4902427347338	434.835757162826	-1329.813805329204	1011.664063897995	403.2441866694124	-1197.313800083977	948.2406202053743	313.7683152424157	-1172.698655516569	982.9616400254104	249.5003532984167	-1036.857181424819	nan	nan	nan	960.1932528042655	121.3001160435957	-1100.505342141065	1001.536412805389	121.4265755608926	-1056.893379849605	941.0997564603304	279.7388674862223	-960.980637494688	
1877	147.5	855.6120151824172	1432.593449439208	-1137.324705413407	838.3367240793646	1201.954919608128	-1079.033674566467	891.454945659694	1331.06365320519	-1271.050350788514	726.2221499738085	1428.833893468449	-1220.811050027463	1012.626021853856	1409.00236099026	-1148.428138245403	717.3495720799275	955.6058797876177	-1212.015781341756	990.4959460693271	947.1868258985562	-1212.418085425147	850.8160510637197	994.3398871879065	-1023.158962789849	882.3800174447456	990.9912092678068	-1024.562444744905	690.7132544426483	1026.542760381833	-1159.924449221826	1032.629009355441	1011.199190723992	-1140.677912799634	661.7242915069683	881.6697838095133	-1113.256298254889	770.2736896587596	691.8883715844476	-1221.226835515115	713.0016278198915	622.0011482872732	-1105.686449973241	742.1216638503329	480.7841596377456	-1067.74937714375	nan	nan	nan	808.7389023952292	394.951486845934	-1085.362496691452	753.0027497017079	308.887312585831	-972.2467874587825	819.5521924150676	228.9885317121868	-990.778641264533	797.3905283381308	127.9672367289851	-883.3066583705255	nan	nan	nan	826.729715761999	57.45122507207114	-1007.247596287216	782.7822159476127	34.83501204847999	-973.860834144059	835.845863459655	108.5124771522815	-804.1960283616095	1049.728887133947	871.884165834442	-1179.39712263804	962.0917654999785	752.1446097351026	-1323.585195187042	1034.578694594972	641.1253323815482	-1275.457518859599	1006.070790972125	509.9660985393572	-1323.56532111846	nan	nan	nan	956.1997761603818	438.1748449662619	-1333.579858776681	1010.35703814	401.2782157428731	-1202.421220249704	946.3752057269247	311.4242987169928	-1181.108741845701	980.9397858587481	241.976854081046	-1047.691744031833	nan	nan	nan	958.8579654145313	116.6397588941836	-1116.913559491783	999.8896743605015	114.887170381572	-1073.032446378776	938.5853373122998	268.9297152183543	-970.752012035534	
1878	147.504	855.3770678124564	1434.860982487415	-1137.340431785024	836.815876064747	1204.333141498918	-1080.076231743892	892.8286832854382	1334.332692183785	-1270.937847781084	726.9042673142681	1431.607198066305	-1222.11929219097	1012.198022760359	1411.50620305118	-1146.731097240587	717.9734992600513	957.407766483042	-1213.708475468565	990.560724619217	950.4587075669369	-1212.376289060685	849.9869663577743	997.0227217768978	-1024.137160531111	881.6089952659574	993.7859384219915	-1025.327335356212	691.0730643522024	1028.431050736018	-1163.166461501966	1032.390726095499	1014.796344913999	-1140.143470617292	662.0179157504687	883.6315161069002	-1114.317501988226	772.5508998429389	692.9537165433675	-1218.424943225817	713.5196993907919	624.4694873095865	-1102.533878396277	742.2940887450045	484.0155523987111	-1061.253770389282	nan	nan	nan	809.0324269469163	397.9473418886801	-1077.738542347922	752.668691553795	312.4923385450277	-964.4547566055942	818.9365865527208	232.1353839874928	-983.3357257710945	796.7857645844788	130.9323652901487	-875.7268140966861	nan	nan	nan	826.4675963238528	57.12011158179468	-997.9372775886429	782.6833212941699	34.94060617993033	-964.0409714005663	835.4316852244785	113.0988768298319	-796.6357624376284	1050.01165654519	875.6763996058747	-1179.960601524743	961.5793018872902	756.5727037348046	-1324.000792100574	1034.148415204117	644.6347121022762	-1276.896004619844	1005.053500960722	513.1083774741481	-1324.897038833563	nan	nan	nan	954.9675562053488	441.3949927055332	-1337.030166344531	1009.049383282951	399.2077342375106	-1207.432976272117	944.5740122308222	309.0579766986219	-1189.527879399703	978.9097143279043	234.4549988281929	-1058.784016071161	nan	nan	nan	957.5792635236667	112.249824078615	-1133.486113062411	998.2722803255588	108.5927967697395	-1089.406582564338	936.0123044462321	258.0546821444357	-980.9581689615686	
1879	147.508	855.2023809168529	1437.141757112926	-1137.446891424008	835.3282961293845	1206.760660265447	-1081.142116830618	894.1785753923174	1337.558731534795	-1270.832807149683	727.6249749380517	1434.380311896833	-1223.446621018046	1011.766556620061	1413.961096170134	-1145.145532218846	718.637734513361	959.1961091478003	-1215.414927999884	990.5330211844067	953.7780451236836	-1212.401172832289	849.2201419667517	999.7161426775549	-1025.184815837676	880.9076919702777	996.5984065324358	-1026.171750199519	691.5011143211043	1030.290296670971	-1166.366004970192	1032.11749448196	1018.536824245533	-1139.845741837487	662.334940893864	885.5622919957406	-1115.463916459244	774.7755726847929	694.0357146076192	-1215.745692735791	714.0236627953661	626.9672266345131	-1099.427749315113	742.4015668150205	487.3678791873557	-1054.831142750195	nan	nan	nan	809.2205000753164	401.0775400170284	-1070.272541449173	752.300386120622	316.2419118680692	-956.7718717999065	818.2056628805495	235.4088623993892	-976.1127461184192	796.1424989925487	133.9972959461128	-868.3903061459954	nan	nan	nan	826.1821487293314	56.81391941635163	-988.7201926609736	782.5707478019337	35.08262789933412	-954.3047411157596	835.0062118342731	117.8842607330444	-789.3524007001971	1050.272476328178	879.5147446680015	-1180.635531867539	961.0202585142655	760.8934743600064	-1324.386773380934	1033.661474175135	648.057472201599	-1278.184911962479	1004.055930503981	516.048200067688	-1325.900392181359	nan	nan	nan	953.8005962490463	444.4776193657952	-1340.166940811474	1007.746710846964	397.0375465744423	-1212.352987551131	942.8508954125167	306.6803729416354	-1197.953576609641	976.8882197229846	226.9669797231664	-1070.134422413012	nan	nan	nan	956.3564094954145	108.1644121641675	-1150.204795781457	996.6895189077892	102.5790038967332	-1106.005945034543	933.409088589091	247.1567106834088	-991.6012807088758	
1880	147.512	855.0853808414697	1439.423125142328	-1137.637801475676	833.8748091563502	1209.226264123722	-1082.227271839572	895.5024836585286	1340.73081859332	-1270.734694357893	728.3845841607473	1437.1407557401	-1224.79150891576	1011.333488879881	1416.356559364878	-1143.671815511345	719.3436105360049	960.9499297621562	-1217.132003540485	990.4211939416074	957.1342167692807	-1212.48831299997	848.5152638866882	1002.413101337179	-1026.299816593737	880.2754551209205	999.420810954135	-1027.09311136571	691.9944901554227	1032.11233253803	-1169.512274292378	1031.813620501467	1022.395488363264	-1139.781064311029	662.6679340080198	887.4522970078575	-1116.696337050546	776.9164327581682	695.1099106711711	-1213.193622550437	714.5074501380095	629.4861981280335	-1096.35858571168	742.443375156528	490.8279124558739	-1048.48808897725	nan	nan	nan	809.3064106855905	404.3266791627879	-1062.980527561439	751.9035398853647	320.1199752880841	-949.2112699991901	817.3609165006288	238.7931575092329	-969.1159117573632	795.4604114747649	137.150527167097	-861.3038100288084	nan	nan	nan	825.8765151011165	56.53920450476359	-979.6055024273634	782.443979771202	35.27335122115414	-944.6666802391475	834.561954881922	122.8517677109412	-782.3544491377609	1050.517542852178	883.3832196015444	-1181.406886250754	960.4293221204626	765.0943749526303	-1324.749825698301	1033.104225280809	651.3814851067493	-1279.3074005276	1003.079048909891	518.7705950207494	-1326.577683272832	nan	nan	nan	952.7045670477089	447.4059884177287	-1342.994366505181	1006.455028369408	394.7744384643902	-1217.184011565633	941.2179826195016	304.3042314059327	-1206.381536068313	974.8924188433767	219.5473657550124	-1081.739740700008	nan	nan	nan	955.1875662015409	104.4182096520556	-1167.048410627291	995.1462522118161	96.88281001763697	-1122.817990385723	930.8057103095861	236.2804817426486	-1002.677726074636	
